# xmcd
#
# Track frame offsets:
#	150
#	14095
#	28417
#	46227
#	60625
#	74070
#	90395
#	106672
#	123975
#	140832
#	158762
#	174010
#	188965
#	201860
#	223675
#	248270
#	261210
#	275090
#
# Disc length: 3728
#
# Revision: 1
# Processed by: cddbd v1.5.1PL0 Copyright (c) Steve Scherf et al.
# Submitted via: VisiTrax 2.9.5.180 - For more info visit www.synapsa.com
# Normalized: r0:DSETVAR1
#
DISCID=080e8e12
DTITLE=Various Artist - CDX 148 November 1996
DYEAR=1996
DGENRE=
TTITLE0=George Jones - Billy B Bad
TTITLE1=Harley Allen - Boy she did
TTITLE2=John Michael Montgomery - Friends
TTITLE3=Mavericks - I don't care (if you love me anymore)
TTITLE4=James T Horn - If my heart had an ass
TTITLE5=Western Flyer - Lost in yoy
TTITLE6=Stephanie Bentley - Once I was the light of your life
TTITLE7=Lyle LOvett - Private conversation
TTITLE8=John Berry - She's taken a shine
TTITLE9=Wynonna - Somebody to love you
TTITLE10=Joe Nichols - To tell you the truth, I lied
TTITLE11=Chris Ward - When you get to be ou
TTITLE12=Osborne Brothers - Rocky top "96"
TTITLE13=Osborne Brothers - Rocky Top "96"
TTITLE14=James T Horn - If my heart had an ass
TTITLE15=Groovegrass Boyz - Macarena
TTITLE16=Corinda - Watcha gonna do with the broken heart
TTITLE17=Paul Brandt - PSA
EXTD=
EXTT0=
EXTT1=
EXTT2=
EXTT3=
EXTT4=
EXTT5=
EXTT6=
EXTT7=
EXTT8=
EXTT9=
EXTT10=
EXTT11=
EXTT12=
EXTT13=
EXTT14=
EXTT15=
EXTT16=
EXTT17=
PLAYORDER=
